#tb 0: 1/5
#media_type 0: video
#codec_id 0: rawvideo
#dimensions 0: 320x240
#sar 0: 1/1
0,          0,          0,        1,   115200, 0x39a9f743
0,          1,          1,        1,   115200, 0x7749d86c
0,          2,          2,        1,   115200, 0x636dd339
0,          3,          3,        1,   115200, 0x4c14ef30
0,          4,          4,        1,   115200, 0x249bf65a
